<svg id="visual" viewBox="0 0 900 600" width="900" height="600" xmlns="http://www.w3.org/2000/svg" xmlns:xlink="http://www.w3.org/1999/xlink" version="1.1"><g stroke-width="1" stroke-linejoin="bevel"><path d="M496 325L532 377L575 331Z" fill="#277297" stroke="#277297"></path><path d="M496 325L424 366L532 377Z" fill="#246688" stroke="#246688"></path><path d="M685 437L636 398L609 511Z" fill="#205a7a" stroke="#205a7a"></path><path d="M532 377L636 398L575 331Z" fill="#0c2435" stroke="#0c2435"></path><path d="M672 232L623 221L575 331Z" fill="#297ea6" stroke="#297ea6"></path><path d="M575 331L623 221L496 325Z" fill="#205a7a" stroke="#205a7a"></path><path d="M496 325L363 296L424 366Z" fill="#205a7a" stroke="#205a7a"></path><path d="M468 164L428 210L496 325Z" fill="#112e42" stroke="#112e42"></path><path d="M723 316L672 232L575 331Z" fill="#19435d" stroke="#19435d"></path><path d="M428 210L363 296L496 325Z" fill="#297ea6" stroke="#297ea6"></path><path d="M609 511L636 398L532 377Z" fill="#246688" stroke="#246688"></path><path d="M636 398L723 316L575 331Z" fill="#277297" stroke="#277297"></path><path d="M623 221L468 164L496 325Z" fill="#112e42" stroke="#112e42"></path><path d="M611 114L468 164L623 221Z" fill="#00101c" stroke="#00101c"></path><path d="M407 495L478 513L424 366Z" fill="#0c2435" stroke="#0c2435"></path><path d="M424 366L478 513L532 377Z" fill="#081a28" stroke="#081a28"></path><path d="M685 437L723 316L636 398Z" fill="#00101c" stroke="#00101c"></path><path d="M478 513L609 511L532 377Z" fill="#0c2435" stroke="#0c2435"></path><path d="M312 420L407 495L424 366Z" fill="#1d4e6b" stroke="#1d4e6b"></path><path d="M721 99L611 114L672 232Z" fill="#297ea6" stroke="#297ea6"></path><path d="M672 232L611 114L623 221Z" fill="#205a7a" stroke="#205a7a"></path><path d="M363 296L312 420L424 366Z" fill="#246688" stroke="#246688"></path><path d="M702 513L761 417L685 437Z" fill="#297ea6" stroke="#297ea6"></path><path d="M685 437L761 417L723 316Z" fill="#246688" stroke="#246688"></path><path d="M609 511L702 513L685 437Z" fill="#112e42" stroke="#112e42"></path><path d="M667 600L702 513L609 511Z" fill="#1d4e6b" stroke="#1d4e6b"></path><path d="M295 170L290 322L363 296Z" fill="#1d4e6b" stroke="#1d4e6b"></path><path d="M363 296L290 322L312 420Z" fill="#246688" stroke="#246688"></path><path d="M295 170L363 296L428 210Z" fill="#081a28" stroke="#081a28"></path><path d="M761 417L775 272L723 316Z" fill="#112e42" stroke="#112e42"></path><path d="M723 316L775 272L672 232Z" fill="#00101c" stroke="#00101c"></path><path d="M611 114L499 89L468 164Z" fill="#00101c" stroke="#00101c"></path><path d="M468 164L404 106L428 210Z" fill="#246688" stroke="#246688"></path><path d="M468 600L560 600L478 513Z" fill="#19435d" stroke="#19435d"></path><path d="M478 513L560 600L609 511Z" fill="#246688" stroke="#246688"></path><path d="M499 89L404 106L468 164Z" fill="#19435d" stroke="#19435d"></path><path d="M412 600L478 513L407 495Z" fill="#15384f" stroke="#15384f"></path><path d="M412 600L468 600L478 513Z" fill="#246688" stroke="#246688"></path><path d="M207 369L306 493L312 420Z" fill="#0c2435" stroke="#0c2435"></path><path d="M312 420L306 493L407 495Z" fill="#0c2435" stroke="#0c2435"></path><path d="M299 600L412 600L407 495Z" fill="#00101c" stroke="#00101c"></path><path d="M315 136L295 170L428 210Z" fill="#00101c" stroke="#00101c"></path><path d="M702 513L783 539L761 417Z" fill="#277297" stroke="#277297"></path><path d="M560 600L667 600L609 511Z" fill="#112e42" stroke="#112e42"></path><path d="M404 106L315 136L428 210Z" fill="#246688" stroke="#246688"></path><path d="M832 189L721 99L672 232Z" fill="#15384f" stroke="#15384f"></path><path d="M574 0L536 0L499 89Z" fill="#277297" stroke="#277297"></path><path d="M787 600L783 539L702 513Z" fill="#277297" stroke="#277297"></path><path d="M900 217L832 189L775 272Z" fill="#00101c" stroke="#00101c"></path><path d="M290 322L207 369L312 420Z" fill="#277297" stroke="#277297"></path><path d="M192 290L207 369L290 322Z" fill="#277297" stroke="#277297"></path><path d="M775 272L832 189L672 232Z" fill="#15384f" stroke="#15384f"></path><path d="M900 325L775 272L761 417Z" fill="#205a7a" stroke="#205a7a"></path><path d="M574 0L499 89L611 114Z" fill="#277297" stroke="#277297"></path><path d="M499 89L379 0L404 106Z" fill="#1d4e6b" stroke="#1d4e6b"></path><path d="M404 106L379 0L315 136Z" fill="#00101c" stroke="#00101c"></path><path d="M668 0L574 0L611 114Z" fill="#0c2435" stroke="#0c2435"></path><path d="M197 185L192 290L295 170Z" fill="#112e42" stroke="#112e42"></path><path d="M295 170L192 290L290 322Z" fill="#246688" stroke="#246688"></path><path d="M306 493L299 600L407 495Z" fill="#246688" stroke="#246688"></path><path d="M183 523L299 600L306 493Z" fill="#15384f" stroke="#15384f"></path><path d="M721 99L668 0L611 114Z" fill="#277297" stroke="#277297"></path><path d="M782 0L668 0L721 99Z" fill="#277297" stroke="#277297"></path><path d="M667 600L787 600L702 513Z" fill="#205a7a" stroke="#205a7a"></path><path d="M900 437L900 325L761 417Z" fill="#0c2435" stroke="#0c2435"></path><path d="M900 437L761 417L900 467Z" fill="#277297" stroke="#277297"></path><path d="M235 81L197 185L295 170Z" fill="#1d4e6b" stroke="#1d4e6b"></path><path d="M235 81L295 170L315 136Z" fill="#112e42" stroke="#112e42"></path><path d="M536 0L379 0L499 89Z" fill="#1d4e6b" stroke="#1d4e6b"></path><path d="M900 467L761 417L783 539Z" fill="#00101c" stroke="#00101c"></path><path d="M900 325L900 217L775 272Z" fill="#19435d" stroke="#19435d"></path><path d="M832 189L802 60L721 99Z" fill="#00101c" stroke="#00101c"></path><path d="M900 97L802 60L832 189Z" fill="#19435d" stroke="#19435d"></path><path d="M900 600L900 467L783 539Z" fill="#19435d" stroke="#19435d"></path><path d="M263 0L235 81L315 136Z" fill="#0c2435" stroke="#0c2435"></path><path d="M119 388L183 523L207 369Z" fill="#112e42" stroke="#112e42"></path><path d="M207 369L183 523L306 493Z" fill="#081a28" stroke="#081a28"></path><path d="M197 185L135 284L192 290Z" fill="#00101c" stroke="#00101c"></path><path d="M192 290L135 284L207 369Z" fill="#1d4e6b" stroke="#1d4e6b"></path><path d="M102 184L135 284L197 185Z" fill="#1d4e6b" stroke="#1d4e6b"></path><path d="M900 0L782 0L802 60Z" fill="#112e42" stroke="#112e42"></path><path d="M802 60L782 0L721 99Z" fill="#19435d" stroke="#19435d"></path><path d="M135 284L119 388L207 369Z" fill="#00101c" stroke="#00101c"></path><path d="M116 600L201 600L183 523Z" fill="#081a28" stroke="#081a28"></path><path d="M183 523L201 600L299 600Z" fill="#081a28" stroke="#081a28"></path><path d="M379 0L263 0L315 136Z" fill="#19435d" stroke="#19435d"></path><path d="M86 118L102 184L197 185Z" fill="#297ea6" stroke="#297ea6"></path><path d="M900 217L900 97L832 189Z" fill="#277297" stroke="#277297"></path><path d="M787 600L900 600L783 539Z" fill="#297ea6" stroke="#297ea6"></path><path d="M263 0L229 0L235 81Z" fill="#205a7a" stroke="#205a7a"></path><path d="M86 118L197 185L235 81Z" fill="#15384f" stroke="#15384f"></path><path d="M135 284L0 380L119 388Z" fill="#205a7a" stroke="#205a7a"></path><path d="M0 471L79 516L119 388Z" fill="#00101c" stroke="#00101c"></path><path d="M119 388L79 516L183 523Z" fill="#15384f" stroke="#15384f"></path><path d="M79 516L116 600L183 523Z" fill="#0c2435" stroke="#0c2435"></path><path d="M900 97L900 0L802 60Z" fill="#246688" stroke="#246688"></path><path d="M95 0L86 118L235 81Z" fill="#112e42" stroke="#112e42"></path><path d="M0 271L0 380L135 284Z" fill="#246688" stroke="#246688"></path><path d="M0 271L135 284L102 184Z" fill="#297ea6" stroke="#297ea6"></path><path d="M79 516L0 600L116 600Z" fill="#246688" stroke="#246688"></path><path d="M0 179L0 271L102 184Z" fill="#112e42" stroke="#112e42"></path><path d="M0 380L0 471L119 388Z" fill="#277297" stroke="#277297"></path><path d="M229 0L95 0L235 81Z" fill="#081a28" stroke="#081a28"></path><path d="M86 118L0 179L102 184Z" fill="#297ea6" stroke="#297ea6"></path><path d="M0 90L0 179L86 118Z" fill="#277297" stroke="#277297"></path><path d="M95 0L0 90L86 118Z" fill="#0c2435" stroke="#0c2435"></path><path d="M0 471L0 600L79 516Z" fill="#15384f" stroke="#15384f"></path><path d="M95 0L0 0L0 90Z" fill="#15384f" stroke="#15384f"></path></g></svg>